***************************************************************************

                        XxX Releasers Group

***************************************************************************

screens;
  
http://adulthub.eu/?v=740baileyr.jpeg
 
http://adulthub.eu/?v=740baiymy.jpeg
 
http://adulthub.eu/?v=740baiqcq.jpeg

Format                                   : Windows Media
File size                                : 2.00 GiB
Duration                                 : 36mn 28s
Overall bit rate                         : 7 831 Kbps
Maximum Overall bit rate                 : 8 128 Kbps
Encoded date                             : UTC 2012-11-14 18:38:15.000

Video
ID                                       : 1
Format                                   : VC-1
Format profile                           : Main
Codec ID                                 : WMV3
Codec ID/Info                            : Windows Media Video 9
Codec ID/Hint                            : WMV3
Description of the codec                 : Windows Media Video 9 - CBR
Duration                                 : 36mn 28s
Bit rate                                 : 8 000 Kbps
Width                                    : 1 920 pixels
Height                                   : 1 080 pixels
Display aspect ratio                     : 16:9
Frame rate                               : 29.970 fps
Bit depth                                : 8 bits
Scan type                                : Progressive
Compression mode                         : Lossy
Bits/(Pixel*Frame)                       : 0.129
Stream size                              : 2.04 GiB

Audio
ID                                       : 2
Format                                   : WMA
Format version                           : Version 2
Codec ID                                 : 161
Codec ID/Info                            : Windows Media Audio
Description of the codec                 : Windows Media Audio 9 - 128 kbps, 44 kHz, stereo CBR
Duration                                 : 36mn 28s
Bit rate                                 : 128 Kbps
Channel(s)                               : 2 channels
Sampling rate                            : 44.1 KHz
Bit depth                                : 16 bits
Stream size                              : 33.4 MiB (2%)
